<svg xmlns="http://www.w3.org/2000/svg" xmlns:xlink="http://www.w3.org/1999/xlink" width="32" height="32" viewBox="0 0 32 32">
  <defs>
    <linearGradient id="linear-gradient" x1="0.5" x2="0.5" y2="1" gradientUnits="objectBoundingBox">
      <stop offset="0" stop-color="#1de28b"/>
      <stop offset="1" stop-color="#24b383"/>
    </linearGradient>
  </defs>
  <g id="Payroll_IC" transform="translate(-1 -1)">
    <g id="Group_84820" data-name="Group 84820" transform="translate(1 1)">
      <path id="Path_110650" data-name="Path 110650" d="M1,17C1,4.2,4.2,1,17,1S33,4.2,33,17,29.8,33,17,33,1,29.8,1,17Z" transform="translate(-1 -1)" fill="url(#linear-gradient)"/>
    </g>
    <g id="Group_84821" data-name="Group 84821" transform="translate(7.8 7.8)">
      <path id="Path_110651" data-name="Path 110651" d="M23.636,17.2a.8.8,0,0,1,.8.8v.4a.09.09,0,0,0,.067.089,2.533,2.533,0,0,1,.6.227,2.215,2.215,0,0,1,.91.891,2.373,2.373,0,0,1,.2.451.724.724,0,0,1-.769.887h-.179c-.37,0-.637-.336-.9-.594a.9.9,0,0,0-.656-.214,1.137,1.137,0,0,0-.46.08.562.562,0,0,0-.261.21.646.646,0,0,0-.046.56.59.59,0,0,0,.163.2,1.216,1.216,0,0,0,.284.16,2.722,2.722,0,0,0,.411.13l.548.137a3.727,3.727,0,0,1,.95.362,2.3,2.3,0,0,1,.646.529,1.957,1.957,0,0,1,.369.678,2.753,2.753,0,0,1,.124.822,2.475,2.475,0,0,1-.329,1.3,2.077,2.077,0,0,1-.934.811,2.881,2.881,0,0,1-.684.211.067.067,0,0,0-.053.067v.4a.8.8,0,0,1-1.6,0v-.4a.112.112,0,0,0-.083-.11A3,3,0,0,1,22.2,26.1a2.212,2.212,0,0,1-1.005-.926,2.606,2.606,0,0,1-.271-.731.758.758,0,0,1,.794-.876h.214a.987.987,0,0,1,.781.6.9.9,0,0,0,.385.37,1.321,1.321,0,0,0,.6.126,1.24,1.24,0,0,0,.486-.084.662.662,0,0,0,.3-.232.607.607,0,0,0,.1-.339.53.53,0,0,0-.1-.312.79.79,0,0,0-.313-.244,2.986,2.986,0,0,0-.591-.206l-.666-.167a2.9,2.9,0,0,1-1.4-.751,1.986,1.986,0,0,1-.506-1.444,2.406,2.406,0,0,1,.339-1.3,2.365,2.365,0,0,1,.956-.872,2.685,2.685,0,0,1,.439-.176.141.141,0,0,0,.1-.137V18A.8.8,0,0,1,23.636,17.2Z" transform="translate(-14.436 -13.2)" fill="#fff"/>
      <path id="Path_110652" data-name="Path 110652" d="M20.4,11.2a9.2,9.2,0,1,1-9.2,9.2A9.2,9.2,0,0,1,20.4,11.2Zm0,3.2a6,6,0,1,0,6,6A6,6,0,0,0,20.4,14.4Z" transform="translate(-11.2 -11.2)" fill="#fff" fill-rule="evenodd"/>
    </g>
  </g>
</svg>
